<svg xmlns="http://www.w3.org/2000/svg" xml:space="preserve" width="251.707" height="300" x="0px" y="0px" viewBox="0 0 251.707 300"><path d="M122 10.5c-5.6-.8-7.1-.2-7.1-5.7.1-1.3 1.5-4.2 4.1.1 1.2 1.4 2.7 2.1 3.9 2.5-1.1-.4 7.3 1.5 12.9.4 1.4 1 0 2.7-.5 3.2-.1.1-5.5 1.5-10.6 1.1 0-.1-.6-1.5-.5-1.5-.1.1-2.1 0-2.2-.1M161.1 82c-.3-2.2-.6-4.3-1-6.2-2.7-9.4-6.2-19.3-15.6-23.6-4-1.5-11.5-1.2-12.6-10.5V13.4l-12 2.4v1.8l-.2 5.4s0 2.5.1 5.7c.2 14.4 1 23.6-14.7 29.5-9.7 3.7-10.3 8-11.4 19.2-.1.8-.2 1.6-.2 2.4 0-.3-3.2 31.2 7.4 81.4 0 0 1.6 8.2 1.8 9.3.1.6.7 1.4 2.4 2.6 18 4.3 21.9 1.2 31.3 2.4 9.6 1.3 18.1-4.9 18.3-5 .9-.3 4.1-6.7 4.5-14.9 3.9-21.9 2.9-56.9 1.9-73.6" style="fill:#00a8d9" transform="matrix(1.19633 0 0 1.19633 -27.276 -3.149)"/><path d="M36 207.9c1.6.6 2.7 2.3 2.7 4.2 0 2.9-1.8 6.5-7.7 6.5h-8.2v-21.4H31c5.9 0 7.7 3.6 7.7 6.5 0 1.6-1.1 3.6-2.7 4.2m-2.2-4.1c0-.5-.3-2-2.5-2h-3.6v4.2h3.7c2.1 0 2.4-1.6 2.4-2.2m0 8.4c0-.6-.3-2-2.4-2h-3.7v4h3.6c2.1-.1 2.5-1.6 2.5-2m15.5-14.9h-4.9v21.4H57v-4.5h-7.7v-16.9zm24 13c0 1.1-.7 4.1-3.6 4.1-2.9 0-3.7-3-3.7-4.1v-13h-4.9v13c0 3.6 2.2 8.6 8.5 8.6s8.5-5 8.5-8.6v-13h-4.9v13m24.2.1v-4.5h-7.7v-4h9.9v-4.5H84.8v21.4h14.8v-4.6h-9.9v-3.7h7.7zm30.9-2.5c1.6.6 2.7 2.3 2.7 4.2 0 2.9-1.8 6.5-7.7 6.5h-8.2v-21.4h8.2c5.9 0 7.7 3.6 7.7 6.5 0 1.6-1.1 3.6-2.7 4.2m-2.2-4.1c0-.5-.3-2-2.5-2H120v4.2h3.7c2.1 0 2.4-1.6 2.4-2.2m0 8.4c0-.6-.3-2-2.4-2H120v4h3.6c2.2-.1 2.5-1.6 2.5-2m30.6-4.3c0 4.6-2.5 11.1-10.6 11.1s-10.6-6.5-10.6-11.1c0-4.5 2.5-11 10.6-11s10.6 6.6 10.6 11m-5 0c0-1.6-.7-6.4-5.6-6.4-4.9 0-5.6 4.8-5.6 6.4 0 1.6.7 6.5 5.6 6.5 4.9 0 5.6-4.9 5.6-6.5m13 10.8h4.9v-16.8h5.6v-4.5H159v4.5h5.6v16.8zm19.7 0h4.9v-16.8h5.6v-4.5h-16.2v4.5h5.6v16.8zm20.6-21.4h-4.9v21.4h12.6v-4.5H205v-16.9zm26 13.1v-4.5h-7.7v-4h9.9v-4.5h-14.8v21.4h14.8v-4.6h-9.9v-3.7h7.7zM83.5 235.6c-2.3-2.6-4.9-4.3-8.6-4.3-8.1 0-10.6 6.5-10.6 11 0 4.6 2.5 11 10.6 11 3.4 0 6.1-1.5 8.4-3.8l-2.8-3.4c-1.5 1.3-3.7 2.5-5.6 2.5-5 0-5.7-4.7-5.7-6.3 0-1.6.7-6.4 5.7-6.4 1.8 0 4.1 1.3 5.3 2.8l3.3-3.1zm25.3 6.7c0 4.6-2.5 11.1-10.6 11.1s-10.6-6.5-10.6-11.1c0-4.5 2.5-11 10.6-11s10.6 6.5 10.6 11m-4.9 0c0-1.6-.7-6.4-5.6-6.4-4.9 0-5.6 4.8-5.6 6.4 0 1.6.7 6.5 5.6 6.5 4.9 0 5.6-4.9 5.6-6.5m23.2 2.4v-4.5h-7.8v-4h9.9v-4.6h-14.7V253h4.9v-8.3h7.7zm20.4 0v-4.5h-7.8v-4h9.9v-4.6h-14.7V253h4.9v-8.3h7.7zm20.4 0v-4.5h-7.7v-4h9.9v-4.6h-14.8V253h14.8v-4.6h-9.9v-3.7h7.7zm20.4 0v-4.5h-7.7v-4h9.9v-4.6h-14.8V253h14.8v-4.6h-9.9v-3.7h7.7z" style="fill:#565759" transform="matrix(1.19633 0 0 1.19633 -27.276 -3.149)"/></svg>